<svg width="50" height="50" viewBox="0 0 50 50" fill="none" xmlns="http://www.w3.org/2000/svg">
<g clip-path="url(#clip0)">
<path d="M35.8333 23.3333H35V21.6667H35.8333C37.2141 21.6667 38.3333 20.5474 38.3333 19.1667V4.84667C39.6326 4.38907 40.3149 2.9648 39.8572 1.66553C39.5051 0.665942 38.5598 -0.00197461 37.5 4.55409e-06H12.5C11.1225 -0.00259961 10.0038 1.11198 10.0011 2.48948C9.99906 3.54928 10.6671 4.49459 11.6667 4.84667V19.1667C11.6667 20.5474 12.7859 21.6667 14.1667 21.6667H15V23.3333H14.1667C11.8667 23.336 10.0027 25.2 10 27.5C10 27.9602 10.3731 28.3333 10.8333 28.3333C10.817 33.902 14.0833 38.9573 19.1667 41.2308V49.1667C19.1667 49.6269 19.5398 50 20 50H30C30.4602 50 30.8333 49.6269 30.8333 49.1667V41.2308C35.9159 38.9565 39.182 33.9017 39.1667 28.3333C39.6269 28.3333 40 27.9602 40 27.5C39.9973 25.2 38.1333 23.336 35.8333 23.3333ZM11.6667 2.5C11.6667 2.0398 12.0398 1.66667 12.5 1.66667H37.5C37.9602 1.66667 38.3333 2.0398 38.3333 2.5C38.3333 2.96021 37.9602 3.33334 37.5 3.33334H12.5C12.0398 3.33334 11.6667 2.96021 11.6667 2.5ZM14.1667 20C13.7065 20 13.3333 19.6269 13.3333 19.1667V5H36.6667V19.1667C36.6667 19.6269 36.2935 20 35.8333 20H14.1667ZM33.3333 21.6667V23.3333H16.6667V21.6667H33.3333ZM20.8333 48.3333V41.8767L20.9108 41.8975C20.9942 41.9225 21.0775 41.9417 21.1608 41.965C21.4658 42.0517 21.7739 42.1278 22.085 42.1933C22.2342 42.225 22.3842 42.2508 22.5342 42.2767C22.7917 42.3217 23.0508 42.36 23.3117 42.3892C23.47 42.4083 23.6267 42.4283 23.7867 42.4417C24.1261 42.47 24.4664 42.4861 24.8075 42.49C24.8708 42.49 24.9325 42.4992 24.9958 42.4992C25.0592 42.4992 25.1217 42.4908 25.185 42.49C25.5261 42.4861 25.8661 42.47 26.205 42.4417C26.365 42.4283 26.5233 42.4075 26.6825 42.3892C26.9408 42.3583 27.1975 42.3217 27.4533 42.2775C27.6058 42.2508 27.7583 42.2233 27.91 42.1942C28.2133 42.1317 28.5125 42.0558 28.8092 41.9725C28.9017 41.9467 28.9958 41.9258 29.0883 41.8983C29.1125 41.8908 29.1383 41.8858 29.1625 41.8783L29.1667 48.3333H20.8333ZM29.6833 39.9208C27.4403 40.8253 24.9836 41.0621 22.6092 40.6025C21.8225 40.4511 21.0529 40.222 20.3117 39.9183C15.5797 38.0224 12.4837 33.4309 12.5 28.3333H37.5C37.5158 33.4329 34.4177 38.0256 29.6833 39.9208ZM11.8092 26.6667C12.1636 25.6685 13.1075 25.0013 14.1667 25H35.8333C36.8925 25.0013 37.8363 25.6685 38.1908 26.6667H11.8092Z" fill="#E5B88E"/>
<path d="M21.6667 7.50005H19.0133C18.5531 6.19827 17.1247 5.51609 15.823 5.9764C14.5214 6.43671 13.8391 7.86494 14.2993 9.16671C14.7595 10.4685 16.1879 11.1507 17.4896 10.6904C18.2016 10.4387 18.7616 9.87859 19.0132 9.16671H21.6667C22.1269 9.16671 22.5 8.79359 22.5 8.33338C22.5 7.87317 22.1269 7.50005 21.6667 7.50005ZM16.6667 9.16671C16.2065 9.16671 15.8333 8.79359 15.8333 8.33338C15.8333 7.87317 16.2065 7.50005 16.6667 7.50005C17.1269 7.50005 17.5 7.87317 17.5 8.33338C17.5 8.79359 17.1269 9.16671 16.6667 9.16671Z" fill="#E5B88E"/>
</g>
<defs>
<clipPath id="clip0">
<rect width="50" height="50" fill="white"/>
</clipPath>
</defs>
</svg>
