<svg width="50" height="50" viewBox="0 0 50 50" fill="none" xmlns="http://www.w3.org/2000/svg">
<path d="M48.4375 33.5938H47.6562V27.3438C47.6552 26.5153 47.3256 25.7211 46.7398 25.1352C46.1539 24.5494 45.3597 24.2198 44.5312 24.2188V10.9375C44.5302 10.109 44.2006 9.31481 43.6148 8.72899C43.0289 8.14317 42.2347 7.81359 41.4062 7.8125H8.59375C7.76528 7.81359 6.97106 8.14317 6.38524 8.72899C5.79942 9.31481 5.46984 10.109 5.46875 10.9375V24.2188C4.64028 24.2198 3.84606 24.5494 3.26024 25.1352C2.67442 25.7211 2.34484 26.5153 2.34375 27.3438V33.5938H1.5625C1.3553 33.5938 1.15659 33.6761 1.01007 33.8226C0.86356 33.9691 0.78125 34.1678 0.78125 34.375V37.5C0.78125 37.7072 0.86356 37.9059 1.01007 38.0524C1.15659 38.1989 1.3553 38.2812 1.5625 38.2812H2.34375V41.4062C2.34375 41.6134 2.42606 41.8122 2.57257 41.9587C2.71909 42.1052 2.9178 42.1875 3.125 42.1875H5.46875C5.64931 42.1876 5.82432 42.125 5.96393 42.0105C6.10354 41.896 6.19912 41.7367 6.23438 41.5596L6.89062 38.2812H43.1094L43.7656 41.5596C43.8009 41.7367 43.8965 41.896 44.0361 42.0105C44.1757 42.125 44.3507 42.1876 44.5312 42.1875H46.875C47.0822 42.1875 47.2809 42.1052 47.4274 41.9587C47.5739 41.8122 47.6562 41.6134 47.6562 41.4062V38.2812H48.4375C48.6447 38.2812 48.8434 38.1989 48.9899 38.0524C49.1364 37.9059 49.2188 37.7072 49.2188 37.5V34.375C49.2188 34.1678 49.1364 33.9691 48.9899 33.8226C48.8434 33.6761 48.6447 33.5938 48.4375 33.5938ZM7.03125 10.9375C7.03179 10.5233 7.19659 10.1262 7.48949 9.83325C7.7824 9.54034 8.17952 9.37554 8.59375 9.375H41.4062C41.8205 9.37554 42.2176 9.54034 42.5105 9.83325C42.8034 10.1262 42.9682 10.5233 42.9688 10.9375V24.2188H41.4062V21.0938C41.4052 20.2653 41.0756 19.4711 40.4898 18.8852C39.9039 18.2994 39.1097 17.9698 38.2812 17.9688H28.9062C28.0778 17.9698 27.2836 18.2994 26.6977 18.8852C26.1119 19.4711 25.7823 20.2653 25.7812 21.0938V24.2188H24.2188V21.0938C24.2177 20.2653 23.8881 19.4711 23.3023 18.8852C22.7164 18.2994 21.9222 17.9698 21.0938 17.9688H11.7188C10.8903 17.9698 10.0961 18.2994 9.51024 18.8852C8.92442 19.4711 8.59484 20.2653 8.59375 21.0938V24.2188H7.03125V10.9375ZM39.8438 21.0938V24.2188H27.3438V21.0938C27.3443 20.6795 27.5091 20.2824 27.802 19.9895C28.0949 19.6966 28.492 19.5318 28.9062 19.5312H38.2812C38.6955 19.5318 39.0926 19.6966 39.3855 19.9895C39.6784 20.2824 39.8432 20.6795 39.8438 21.0938ZM22.6562 21.0938V24.2188H10.1562V21.0938C10.1568 20.6795 10.3216 20.2824 10.6145 19.9895C10.9074 19.6966 11.3045 19.5318 11.7188 19.5312H21.0938C21.508 19.5318 21.9051 19.6966 22.198 19.9895C22.4909 20.2824 22.6557 20.6795 22.6562 21.0938ZM3.90625 27.3438C3.90679 26.9295 4.07159 26.5324 4.3645 26.2395C4.6574 25.9466 5.05452 25.7818 5.46875 25.7812H44.5312C44.9455 25.7818 45.3426 25.9466 45.6355 26.2395C45.9284 26.5324 46.0932 26.9295 46.0938 27.3438V33.5938H3.90625V27.3438ZM4.82812 40.625H3.90625V38.2812H5.29688L4.82812 40.625ZM46.0938 40.625H45.1719L44.7031 38.2812H46.0938V40.625ZM47.6562 36.7188H2.34375V35.1562H47.6562V36.7188Z" fill="#E5B88E"/>
</svg>
