<svg width="39" height="39" viewBox="0 0 39 39" fill="none" xmlns="http://www.w3.org/2000/svg">
<path d="M19.645 37.9151C29.8734 37.9151 38.1651 29.6234 38.1651 19.395C38.1651 9.1667 29.8734 0.875 19.645 0.875C9.4167 0.875 1.125 9.1667 1.125 19.395C1.125 29.6234 9.4167 37.9151 19.645 37.9151Z" stroke="white" stroke-width="0.735863" stroke-linecap="round" stroke-linejoin="round" stroke-dasharray="5.89 2.94"/>
<path d="M19.6452 33.7244C27.5591 33.7244 33.9746 27.3089 33.9746 19.3949C33.9746 11.481 27.5591 5.06549 19.6452 5.06549C11.7312 5.06549 5.31573 11.481 5.31573 19.3949C5.31573 27.3089 11.7312 33.7244 19.6452 33.7244Z" stroke="white" stroke-width="0.569357" stroke-linecap="round" stroke-linejoin="round" stroke-dasharray="4.55 2.28"/>
<path d="M20.2567 22.7349C23.6662 22.7349 26.4301 19.971 26.4301 16.5615C26.4301 13.1521 23.6662 10.3882 20.2567 10.3882C16.8473 10.3882 14.0834 13.1521 14.0834 16.5615C14.0834 19.971 16.8473 22.7349 20.2567 22.7349Z" fill="white" fill-opacity="0.972549" stroke="white" stroke-width="0.245144" stroke-linecap="round" stroke-linejoin="round"/>
<path d="M9.875 29.252C16.4375 22.0939 23 22.4065 29.25 29.252C23.9704 34.1353 16.1119 34.4449 9.875 29.252Z" fill="white" stroke="white" stroke-width="0.261338"/>
</svg>
