<svg width="26" height="27" viewBox="0 0 26 27" fill="none" xmlns="http://www.w3.org/2000/svg">
<path d="M24.7031 23.3041H7.31699C6.60043 23.3041 6.01965 22.701 6.01965 21.9569C6.01965 21.2127 6.60043 20.6096 7.31699 20.6096H24.7027C25.4192 20.6096 26 21.2127 26 21.9569C26 22.701 25.4197 23.3041 24.7031 23.3041Z" fill="#4EDEBD"/>
<path d="M24.7031 14.8474H7.31699C6.60043 14.8474 6.01965 14.2443 6.01965 13.5002C6.01965 12.7561 6.60043 12.153 7.31699 12.153H24.7027C25.4192 12.153 26 12.7561 26 13.5002C26.0004 14.2443 25.4197 14.8474 24.7031 14.8474Z" fill="#4EDEBD"/>
<path d="M24.7031 6.39083H7.31699C6.60043 6.39083 6.01965 5.78771 6.01965 5.04359C6.01965 4.29946 6.60043 3.69635 7.31699 3.69635H24.7027C25.4192 3.69635 26 4.29946 26 5.04359C26 5.78771 25.4197 6.39083 24.7031 6.39083Z" fill="#4EDEBD"/>
<path d="M1.74233 6.95712C2.70459 6.95712 3.48466 6.14705 3.48466 5.14778C3.48466 4.14851 2.70459 3.33844 1.74233 3.33844C0.780067 3.33844 0 4.14851 0 5.14778C0 6.14705 0.780067 6.95712 1.74233 6.95712Z" fill="#4EDEBD"/>
<path d="M1.74233 15.3095C2.70459 15.3095 3.48466 14.4995 3.48466 13.5002C3.48466 12.5009 2.70459 11.6909 1.74233 11.6909C0.780067 11.6909 0 12.5009 0 13.5002C0 14.4995 0.780067 15.3095 1.74233 15.3095Z" fill="#4EDEBD"/>
<path d="M1.74233 23.662C2.70459 23.662 3.48466 22.8519 3.48466 21.8526C3.48466 20.8533 2.70459 20.0433 1.74233 20.0433C0.780067 20.0433 0 20.8533 0 21.8526C0 22.8519 0.780067 23.662 1.74233 23.662Z" fill="#4EDEBD"/>
</svg>
