<svg width="50" height="50" viewBox="0 0 50 50" fill="none" xmlns="http://www.w3.org/2000/svg">
<path d="M33.9328 16.0672C33.3172 15.4516 32.3203 15.4516 31.7063 16.0672L24.9922 22.7812L18.3718 16.1609C17.7609 15.55 16.7718 15.55 16.1625 16.1609C15.5516 16.7719 15.5516 17.7609 16.1625 18.3703L22.7828 24.9906L16.1172 31.6562C15.5016 32.2718 15.5016 33.2686 16.1172 33.8828C16.7328 34.4969 17.7297 34.4969 18.3438 33.8828L25.0095 27.2172L31.6297 33.8374C32.2407 34.4484 33.2297 34.4484 33.8391 33.8374C34.4501 33.2265 34.4501 32.2374 33.8391 31.628L27.2188 25.0078L33.9329 18.2937C34.5484 17.6797 34.5485 16.6813 33.9328 16.0672ZM25 0C11.1922 0 0 11.1922 0 25C0 38.8078 11.1922 50 25 50C38.8062 50 50 38.8062 50 25C50 11.1938 38.8078 0 25 0ZM25 46.875C12.9187 46.875 3.125 37.0813 3.125 25C3.125 12.9187 12.9187 3.125 25 3.125C37.0813 3.125 46.875 12.9187 46.875 25C46.875 37.0813 37.0813 46.875 25 46.875Z" fill="#4FE3C1"/>
</svg>
