<svg width="20" height="20" viewBox="0 0 20 20" fill="none" xmlns="http://www.w3.org/2000/svg">
<path d="M10 0C4.47714 0 0 4.47714 0 10C0 15.5229 4.47714 20 10 20C15.5229 20 20 15.5229 20 10C19.994 4.47968 15.5203 0.00604839 10 0ZM10 19.3548C4.83347 19.3548 0.645161 15.1665 0.645161 10C0.645161 4.83347 4.83347 0.645161 10 0.645161C15.1665 0.645161 19.3548 4.83347 19.3548 10C19.3488 15.164 15.164 19.3488 10 19.3548Z" fill="#4EDEBD"/>
<path d="M14.7027 5.14802C14.6138 5.10496 14.5102 5.10496 14.4213 5.14802V5.1477L8.27873 8.12899C8.26937 8.13351 8.26389 8.14318 8.25518 8.14867C8.21304 8.17657 8.17695 8.21266 8.14905 8.2548C8.14356 8.2635 8.13389 8.26899 8.12937 8.27834L5.14776 14.4212C5.07006 14.5816 5.13703 14.7745 5.29735 14.8522C5.38619 14.8953 5.48985 14.8953 5.57873 14.8522L11.7213 11.8709C11.7307 11.8664 11.7361 11.8567 11.7449 11.8512C11.787 11.8233 11.8231 11.7873 11.851 11.7451C11.8565 11.7364 11.8661 11.7309 11.8707 11.7216L14.8523 5.57899C14.93 5.41867 14.863 5.22572 14.7027 5.14802ZM6.13485 13.8651L8.51195 8.9677L11.0323 11.488L6.13485 13.8651ZM11.4897 11.0319L8.96776 8.51189L13.8649 6.1348L11.4897 11.0319Z" fill="#4EDEBD"/>
</svg>
