<svg width="20" height="20" viewBox="0 0 20 20" fill="none" xmlns="http://www.w3.org/2000/svg">
<path d="M20 4.98103V4.66544C20 3.47719 19.0333 2.5105 17.8451 2.5105H2.15494C0.966687 2.5105 0 3.47719 0 4.66544V4.98103V4.98333V15.3348C0 16.523 0.966687 17.4896 2.15494 17.4896H17.8452C19.0334 17.4896 20 16.523 20 15.3348V4.98333C20 4.98259 20 4.98181 20 4.98103ZM2.15494 3.68238H17.8451C18.3871 3.68238 18.8281 4.12336 18.8281 4.66544V4.66571L10.9806 9.89739C10.4582 10.2456 9.54187 10.2456 9.0196 9.89743L1.17188 4.66567V4.6654C1.17188 4.12336 1.61286 3.68238 2.15494 3.68238ZM17.8452 16.3177H2.15494C1.61286 16.3177 1.17188 15.8768 1.17188 15.3348V6.07408L8.36956 10.8725C8.82675 11.1773 9.41328 11.3296 10 11.3296C10.5866 11.3296 11.1734 11.1772 11.6306 10.8725L18.8282 6.07408V15.3348C18.8281 15.8768 18.3872 16.3177 17.8452 16.3177Z" fill="#4FE3C1"/>
</svg>
