<svg width="50" height="50" viewBox="0 0 50 50" fill="none" xmlns="http://www.w3.org/2000/svg">
<g clip-path="url(#clip0)">
<path d="M49.7139 42.083L47.7806 40.1493C47.3991 39.7682 46.7808 39.7682 46.3993 40.1493C46.0182 40.5308 46.0182 41.1491 46.3993 41.5306L46.6659 41.7968H30.7617C30.2223 41.7968 29.7851 42.2344 29.7851 42.7734C29.7851 43.3128 30.2223 43.75 30.7617 43.75H46.6656L46.3993 44.0166C46.0178 44.3977 46.0178 45.0161 46.3993 45.3975C46.59 45.5883 46.8399 45.6836 47.0898 45.6836C47.3396 45.6836 47.5895 45.5883 47.7802 45.3975L49.7139 43.4643C50.0954 43.0828 50.0954 42.4644 49.7139 42.083Z" fill="#E5B88E"/>
<path d="M26.8555 41.7969C26.5976 41.7969 26.3466 41.9014 26.165 42.083C25.9834 42.2646 25.8789 42.5163 25.8789 42.7734C25.8789 43.0302 25.9834 43.2823 26.165 43.4639C26.3466 43.6455 26.5987 43.75 26.8555 43.75C27.1122 43.75 27.3643 43.6455 27.5459 43.4639C27.7275 43.2823 27.832 43.0302 27.832 42.7734C27.832 42.5163 27.7275 42.2646 27.5459 42.083C27.3643 41.9014 27.1133 41.7969 26.8555 41.7969Z" fill="#E5B88E"/>
<path d="M22.6887 41.7969H5.66597L48.0469 7.44591V8.00781C48.0469 8.54721 48.484 8.98438 49.0234 8.98438C49.5628 8.98438 50 8.54721 50 8.00781V5.27344C50 4.73404 49.5628 4.29688 49.0234 4.29688H46.2891C45.7497 4.29688 45.3125 4.73404 45.3125 5.27344C45.3125 5.81284 45.7497 6.25 46.2891 6.25H46.4207L3.88641 40.7249V7.63092L4.15306 7.89757C4.3438 8.08792 4.59366 8.18367 4.84352 8.18367C5.09338 8.18367 5.34325 8.08792 5.53398 7.89757C5.91545 7.5161 5.91545 6.89774 5.53398 6.51627L3.60069 4.58298C3.21922 4.20151 2.60086 4.20151 2.21939 4.58298L0.286102 6.51627C-0.0953674 6.89774 -0.0953674 7.5161 0.286102 7.89757C0.667572 8.27866 1.28555 8.27866 1.66702 7.89757L1.93367 7.63092V42.7734C1.93367 43.3125 2.37083 43.75 2.91023 43.75H22.6887C23.2281 43.75 23.6652 43.3125 23.6652 42.7734C23.6652 42.234 23.2281 41.7969 22.6887 41.7969Z" fill="#E5B88E"/>
<path d="M21.9726 6.25H22.8516C23.3909 6.25 23.8281 5.81284 23.8281 5.27344C23.8281 4.73404 23.3909 4.29688 22.8516 4.29688H21.9726C21.4332 4.29688 20.9961 4.73404 20.9961 5.27344C20.9961 5.81284 21.4332 6.25 21.9726 6.25Z" fill="#E5B88E"/>
<path d="M16.9922 6.25H17.8711C18.4105 6.25 18.8476 5.81284 18.8476 5.27344C18.8476 4.73404 18.4105 4.29688 17.8711 4.29688H16.9922C16.4528 4.29688 16.0156 4.73404 16.0156 5.27344C16.0156 5.81284 16.4528 6.25 16.9922 6.25Z" fill="#E5B88E"/>
<path d="M12.0117 6.25H12.8906C13.43 6.25 13.8672 5.81284 13.8672 5.27344C13.8672 4.73404 13.43 4.29688 12.8906 4.29688H12.0117C11.4723 4.29688 11.0352 4.73404 11.0352 5.27344C11.0352 5.81284 11.4723 6.25 12.0117 6.25Z" fill="#E5B88E"/>
<path d="M26.9531 6.25H27.832C28.3714 6.25 28.8086 5.81284 28.8086 5.27344C28.8086 4.73404 28.3714 4.29688 27.832 4.29688H26.9531C26.4137 4.29688 25.9766 4.73404 25.9766 5.27344C25.9766 5.81284 26.4137 6.25 26.9531 6.25Z" fill="#E5B88E"/>
<path d="M36.914 6.25H37.7929C38.3323 6.25 38.7695 5.81284 38.7695 5.27344C38.7695 4.73404 38.3323 4.29688 37.7929 4.29688H36.914C36.3746 4.29688 35.9375 4.73404 35.9375 5.27344C35.9375 5.81284 36.3746 6.25 36.914 6.25Z" fill="#E5B88E"/>
<path d="M31.9336 6.25H32.8125C33.3519 6.25 33.789 5.81284 33.789 5.27344C33.789 4.73404 33.3519 4.29688 32.8125 4.29688H31.9336C31.3942 4.29688 30.957 4.73404 30.957 5.27344C30.957 5.81284 31.3942 6.25 31.9336 6.25Z" fill="#E5B88E"/>
<path d="M41.8945 6.25H42.7734C43.3128 6.25 43.75 5.81284 43.75 5.27344C43.75 4.73404 43.3128 4.29688 42.7734 4.29688H41.8945C41.3551 4.29688 40.9179 4.73404 40.9179 5.27344C40.9179 5.81284 41.3551 6.25 41.8945 6.25Z" fill="#E5B88E"/>
<path d="M7.03124 6.25H7.91015C8.44955 6.25 8.88671 5.81284 8.88671 5.27344C8.88671 4.73404 8.44955 4.29688 7.91015 4.29688H7.03124C6.49184 4.29688 6.05468 4.73404 6.05468 5.27344C6.05468 5.81284 6.49184 6.25 7.03124 6.25Z" fill="#E5B88E"/>
<path d="M50 31.6082C50 31.0688 49.5628 30.6316 49.0234 30.6316C48.484 30.6316 48.0468 31.0688 48.0468 31.6082V32.4871C48.0468 33.0261 48.484 33.4636 49.0234 33.4636C49.5628 33.4636 50 33.0261 50 32.4871V31.6082Z" fill="#E5B88E"/>
<path d="M50 21.6473C50 21.1079 49.5628 20.6707 49.0234 20.6707C48.484 20.6707 48.0468 21.1079 48.0468 21.6473V22.5262C48.0468 23.0652 48.484 23.5027 49.0234 23.5027C49.5628 23.5027 50 23.0652 50 22.5262V21.6473Z" fill="#E5B88E"/>
<path d="M50 11.6863C50 11.1469 49.5628 10.7098 49.0234 10.7098C48.484 10.7098 48.0468 11.1469 48.0468 11.6863V12.5652C48.0468 13.1043 48.484 13.5418 49.0234 13.5418C49.5628 13.5418 50 13.1043 50 12.5652V11.6863Z" fill="#E5B88E"/>
<path d="M50 16.6668C50 16.1274 49.5628 15.6902 49.0234 15.6902C48.484 15.6902 48.0468 16.1274 48.0468 16.6668V17.5457C48.0468 18.0847 48.484 18.5223 49.0234 18.5223C49.5628 18.5223 50 18.0847 50 17.5457V16.6668Z" fill="#E5B88E"/>
<path d="M50 26.6277C50 26.0883 49.5628 25.6512 49.0234 25.6512C48.484 25.6512 48.0468 26.0883 48.0468 26.6277V27.5067C48.0468 28.0457 48.484 28.4832 49.0234 28.4832C49.5628 28.4832 50 28.0457 50 27.5067V26.6277Z" fill="#E5B88E"/>
<path d="M49.0234 35.6121C48.484 35.6121 48.0468 36.0493 48.0468 36.5887V37.4676C48.0468 38.0066 48.484 38.4442 49.0234 38.4442C49.5628 38.4442 50 38.0066 50 37.4676V36.5887C50 36.0493 49.5628 35.6121 49.0234 35.6121Z" fill="#E5B88E"/>
</g>
<defs>
<clipPath id="clip0">
<rect width="50" height="50" fill="white"/>
</clipPath>
</defs>
</svg>
