<svg width="50" height="50" viewBox="0 0 50 50" fill="none" xmlns="http://www.w3.org/2000/svg">
<path d="M49.218 44.5312H0.7836C0.351569 44.5312 0.00234985 44.182 0.00234985 43.75C0.00234985 43.318 0.351569 42.9688 0.7836 42.9688H49.218C49.65 42.9688 49.9992 43.318 49.9992 43.75C49.9992 44.182 49.65 44.5312 49.218 44.5312Z" fill="#E5B88E"/>
<path d="M49.218 44.5313C48.7859 44.5313 48.4367 44.1821 48.4367 43.75V19.5219C48.4367 19.0899 48.7859 18.7407 49.218 18.7407C49.65 18.7407 49.9992 19.0899 49.9992 19.5219V43.75C49.9992 44.1821 49.65 44.5313 49.218 44.5313Z" fill="#E5B88E"/>
<path d="M33.593 44.5313C33.1609 44.5313 32.8117 44.1821 32.8117 43.75V19.5219C32.8117 19.0899 33.1609 18.7407 33.593 18.7407C34.025 18.7407 34.3742 19.0899 34.3742 19.5219V43.75C34.3742 44.1821 34.025 44.5313 33.593 44.5313Z" fill="#E5B88E"/>
<path d="M16.407 44.5313C15.975 44.5313 15.6258 44.1821 15.6258 43.75V19.5219C15.6258 19.0899 15.975 18.7407 16.407 18.7407C16.8391 18.7407 17.1883 19.0899 17.1883 19.5219V43.75C17.1883 44.1821 16.8391 44.5313 16.407 44.5313Z" fill="#E5B88E"/>
<path d="M0.782028 44.5313C0.349997 44.5313 0.000778198 44.1821 0.000778198 43.75V19.5219C0.000778198 19.0899 0.349997 18.7407 0.782028 18.7407C1.21406 18.7407 1.56328 19.0899 1.56328 19.5219V43.75C1.56328 44.1821 1.21406 44.5313 0.782028 44.5313Z" fill="#E5B88E"/>
<path d="M49.218 20.3032H47.6562C47.2242 20.3032 46.875 19.9539 46.875 19.5219C46.875 19.0899 47.2242 18.7407 47.6562 18.7407H49.218C49.65 18.7407 49.9992 19.0899 49.9992 19.5219C49.9992 19.9539 49.65 20.3032 49.218 20.3032Z" fill="#E5B88E"/>
<path d="M2.34453 20.3032H0.782807C0.350775 20.3032 0.0015564 19.9539 0.0015564 19.5219C0.0015564 19.0899 0.350775 18.7407 0.782807 18.7407H2.34453C2.77656 18.7407 3.12578 19.0899 3.12578 19.5219C3.12578 19.9539 2.77656 20.3032 2.34453 20.3032Z" fill="#E5B88E"/>
<path d="M35.1563 20.3032H32.0305C31.5984 20.3032 31.2492 19.9539 31.2492 19.5219C31.2492 19.0899 31.5984 18.7407 32.0305 18.7407H35.1563C35.5883 18.7407 35.9375 19.0899 35.9375 19.5219C35.9375 19.9539 35.5883 20.3032 35.1563 20.3032Z" fill="#E5B88E"/>
<path d="M17.9711 20.3032H14.8453C14.4133 20.3032 14.0641 19.9539 14.0641 19.5219C14.0641 19.0899 14.4133 18.7407 14.8453 18.7407H17.9711C18.4031 18.7407 18.7524 19.0899 18.7524 19.5219C18.7524 19.9539 18.4031 20.3032 17.9711 20.3032Z" fill="#E5B88E"/>
<path d="M36.7203 38.2766C36.2883 38.2766 35.9391 37.9273 35.9391 37.4953V24.2266C35.9391 23.7945 36.2883 23.4453 36.7203 23.4453C37.1523 23.4453 37.5016 23.7945 37.5016 24.2266V37.4953C37.5016 37.9273 37.1523 38.2766 36.7203 38.2766Z" fill="#E5B88E"/>
<path d="M36.7195 25.0078C36.2875 25.0078 35.9383 24.6586 35.9383 24.2266C35.9383 22.9344 36.9906 21.8828 38.2828 21.8828C38.7148 21.8828 39.0641 22.232 39.0641 22.6641C39.0641 23.0961 38.7148 23.4453 38.2828 23.4453C37.8516 23.4453 37.5008 23.7953 37.5008 24.2266C37.5008 24.6586 37.1516 25.0078 36.7195 25.0078Z" fill="#E5B88E"/>
<path d="M39.8453 41.4016C38.8016 41.4016 37.8203 40.9953 37.0828 40.2586C36.3453 39.5211 35.9383 38.5398 35.9391 37.4953C35.9391 37.0633 36.2891 36.7141 36.7203 36.7141C37.1523 36.7141 37.5016 37.0641 37.5016 37.4953C37.5016 38.1226 37.7453 38.7117 38.1875 39.1531C38.6297 39.5953 39.218 39.8391 39.8453 39.8391C40.2773 39.8391 40.6266 40.1883 40.6266 40.6203C40.6266 41.0523 40.2773 41.4016 39.8453 41.4016Z" fill="#E5B88E"/>
<path d="M46.0937 38.2766C45.6617 38.2766 45.3125 37.9273 45.3125 37.4953V24.2266C45.3125 23.7945 45.6617 23.4453 46.0937 23.4453C46.5258 23.4453 46.875 23.7945 46.875 24.2266V37.4953C46.875 37.9273 46.5258 38.2766 46.0937 38.2766Z" fill="#E5B88E"/>
<path d="M46.0937 25.0078C45.6617 25.0078 45.3125 24.6586 45.3125 24.2266C45.3125 23.7953 44.9625 23.4453 44.5312 23.4453C44.0992 23.4453 43.75 23.0961 43.75 22.6641C43.75 22.232 44.0992 21.8828 44.5312 21.8828C45.8234 21.8828 46.875 22.9344 46.875 24.2266C46.875 24.6586 46.5258 25.0078 46.0937 25.0078Z" fill="#E5B88E"/>
<path d="M42.968 41.4016C42.5359 41.4016 42.1867 41.0523 42.1867 40.6203C42.1867 40.1883 42.5359 39.8391 42.968 39.8391C44.2601 39.8391 45.3125 38.7875 45.3125 37.4953C45.3125 37.0633 45.6617 36.7141 46.0937 36.7141C46.5258 36.7141 46.875 37.0633 46.875 37.4953C46.875 39.6492 45.1226 41.4016 42.968 41.4016Z" fill="#E5B88E"/>
<path d="M44.5312 23.4453H38.2828C37.8508 23.4453 37.5016 23.0961 37.5016 22.6641C37.5016 22.232 37.8508 21.8828 38.2828 21.8828H44.5312C44.9633 21.8828 45.3125 22.232 45.3125 22.6641C45.3125 23.0961 44.9633 23.4453 44.5312 23.4453Z" fill="#E5B88E"/>
<path d="M43.7656 33.5921C43.7617 33.5929 43.7555 33.5921 43.75 33.5921H39.0633C38.8555 33.5921 38.657 33.5101 38.5109 33.3632C38.3648 33.2164 38.282 33.0179 38.282 32.8109L38.2828 25.7875C38.2828 25.3554 38.6328 25.0062 39.0641 25.0062H43.7492C44.1805 25.0062 44.5305 25.3554 44.5305 25.7875L44.5312 32.6547C44.5414 32.7047 44.5469 32.7578 44.5469 32.8109C44.5469 33.2429 44.1969 33.5921 43.7656 33.5921ZM39.8445 32.0297H42.9687L42.968 26.5687H39.8453L39.8445 32.0297Z" fill="#E5B88E"/>
<path d="M44.5312 35.9359C44.2039 35.9359 43.8992 35.7289 43.7906 35.4015L43.0094 33.0578C42.8726 32.6484 43.0937 32.2054 43.5031 32.0695C43.9148 31.932 44.3555 32.1539 44.4914 32.5632L45.2726 34.907C45.4094 35.3164 45.1883 35.7593 44.7789 35.8953C44.6961 35.9226 44.6125 35.9359 44.5312 35.9359Z" fill="#E5B88E"/>
<path d="M38.282 35.936C38.2008 35.936 38.1172 35.9227 38.0351 35.8953C37.6266 35.7594 37.4047 35.3172 37.5414 34.907L38.3226 32.5633C38.4594 32.1547 38.8969 31.932 39.3109 32.0695C39.7195 32.2055 39.9414 32.6477 39.8047 33.0578L39.0234 35.4016C38.9141 35.7289 38.6094 35.936 38.282 35.936Z" fill="#E5B88E"/>
<path d="M41.4062 36.7172C39.5055 36.7164 38.3695 36.4563 37.8289 35.8985C37.5211 35.5805 37.4969 35.2555 37.5016 35.1305C37.5148 34.7078 37.8617 34.3735 38.2812 34.3735C38.2898 34.3735 38.2977 34.3735 38.3063 34.3743C38.6156 34.3836 38.8773 34.5719 38.9961 34.8368C39.1555 34.9219 39.743 35.1539 41.4062 35.1547C43.0703 35.1547 43.6578 34.9227 43.8172 34.8375C43.9352 34.5719 44.1969 34.3836 44.507 34.3743C44.5156 34.3735 44.5234 34.3735 44.532 34.3735C44.9516 34.3735 45.2984 34.7078 45.3117 35.1305C45.3164 35.2555 45.2922 35.5813 44.9836 35.8993C44.443 36.4571 43.3062 36.7172 41.4062 36.7172Z" fill="#E5B88E"/>
<path d="M42.968 41.4016H39.8453C39.4133 41.4016 39.0641 41.0523 39.0641 40.6203C39.0641 40.1883 39.4133 39.8391 39.8453 39.8391H42.968C43.4 39.8391 43.7492 40.1883 43.7492 40.6203C43.7492 41.0523 43.4 41.4016 42.968 41.4016Z" fill="#E5B88E"/>
<path d="M46.875 33.5922H46.0937C45.6617 33.5922 45.3125 33.243 45.3125 32.811C45.3125 32.3789 45.6617 32.0297 46.0937 32.0297H46.875C47.307 32.0297 47.6562 32.3789 47.6562 32.811C47.6562 33.243 47.307 33.5922 46.875 33.5922Z" fill="#E5B88E"/>
<path d="M36.7195 33.5922H35.9383C35.5062 33.5922 35.157 33.243 35.157 32.811C35.157 32.3789 35.5062 32.0297 35.9383 32.0297H36.7195C37.1516 32.0297 37.5008 32.3789 37.5008 32.811C37.5008 33.243 37.1516 33.5922 36.7195 33.5922Z" fill="#E5B88E"/>
<path d="M39.0648 26.5688C38.8125 26.5688 38.5641 26.4469 38.4141 26.2211L36.6195 23.5313C36.3797 23.1727 36.4766 22.6875 36.8359 22.4477C37.193 22.2086 37.6797 22.3047 37.9195 22.6641L39.7141 25.354C39.9539 25.7125 39.857 26.1977 39.4977 26.4376C39.3648 26.5258 39.2133 26.5688 39.0648 26.5688Z" fill="#E5B88E"/>
<path d="M43.7492 26.5672C43.6008 26.5672 43.4492 26.5243 43.3164 26.436C42.957 26.1961 42.8601 25.711 43.1 25.3524L44.8945 22.6641C45.1344 22.3047 45.6195 22.2086 45.9781 22.4477C46.3375 22.6875 46.4344 23.1727 46.1945 23.5313L44.4 26.2196C44.2492 26.4454 44.0015 26.5672 43.7492 26.5672Z" fill="#E5B88E"/>
<path d="M20.3133 21.8625C19.8812 21.8625 19.532 21.5133 19.532 21.0812V7.8125C19.532 7.38047 19.8812 7.03125 20.3133 7.03125C20.7453 7.03125 21.0945 7.38047 21.0945 7.8125V21.0812C21.0945 21.5133 20.7453 21.8625 20.3133 21.8625Z" fill="#E5B88E"/>
<path d="M20.3125 8.59219C19.8805 8.59219 19.5312 8.24297 19.5312 7.81094C19.5312 6.51953 20.5836 5.46875 21.8758 5.46875C22.3078 5.46875 22.657 5.81797 22.657 6.25C22.657 6.68203 22.3078 7.03125 21.8758 7.03125C21.4445 7.03125 21.0937 7.38047 21.0937 7.81094C21.0937 8.24297 20.7445 8.59219 20.3125 8.59219Z" fill="#E5B88E"/>
<path d="M23.4383 24.9875C22.3945 24.9875 21.4133 24.5812 20.6758 23.8437C19.9383 23.1062 19.5312 22.125 19.532 21.0812C19.532 20.6492 19.882 20.3 20.3133 20.3C20.7453 20.3 21.0945 20.65 21.0945 21.0812C21.0945 21.7078 21.3383 22.2969 21.7805 22.7391C22.2227 23.1812 22.8117 23.425 23.4383 23.425C23.8703 23.425 24.2195 23.7742 24.2195 24.2062C24.2195 24.6383 23.8703 24.9875 23.4383 24.9875Z" fill="#E5B88E"/>
<path d="M29.6867 21.8625C29.2547 21.8625 28.9055 21.5133 28.9055 21.0812V7.81091C28.9055 7.37888 29.2547 7.02966 29.6867 7.02966C30.1188 7.02966 30.468 7.37888 30.468 7.81091V21.0812C30.468 21.5133 30.1188 21.8625 29.6867 21.8625Z" fill="#E5B88E"/>
<path d="M29.6867 8.59219C29.2547 8.59219 28.9055 8.24297 28.9055 7.81094C28.9055 7.38047 28.5555 7.03125 28.1242 7.03125C27.6922 7.03125 27.343 6.68203 27.343 6.25C27.343 5.81797 27.6922 5.46875 28.1242 5.46875C29.4164 5.46875 30.468 6.51953 30.468 7.81094C30.468 8.24297 30.1188 8.59219 29.6867 8.59219Z" fill="#E5B88E"/>
<path d="M26.5609 24.9875C26.1289 24.9875 25.7797 24.6383 25.7797 24.2062C25.7797 23.7742 26.1289 23.425 26.5609 23.425C27.8531 23.425 28.9055 22.3734 28.9055 21.0812C28.9055 20.6492 29.2547 20.3 29.6867 20.3C30.1188 20.3 30.468 20.6492 30.468 21.0812C30.468 23.2351 28.7156 24.9875 26.5609 24.9875Z" fill="#E5B88E"/>
<path d="M28.1242 7.03125H21.8758C21.4437 7.03125 21.0945 6.68203 21.0945 6.25C21.0945 5.81797 21.4437 5.46875 21.8758 5.46875H28.1242C28.5562 5.46875 28.9055 5.81797 28.9055 6.25C28.9055 6.68203 28.5562 7.03125 28.1242 7.03125Z" fill="#E5B88E"/>
<path d="M22.6563 17.1781C22.4484 17.1781 22.25 17.0961 22.1039 16.9492C21.9578 16.8023 21.875 16.6047 21.875 16.3968L21.8758 9.37341C21.8758 8.94138 22.2258 8.59216 22.657 8.59216H27.3422C27.7734 8.59216 28.1234 8.94138 28.1234 9.37341L28.1242 16.3953C28.1242 16.8265 27.775 17.1765 27.343 17.1765L22.6563 17.1781ZM23.4383 10.1547L23.4375 15.6156L26.5617 15.614L26.5609 10.1547H23.4383Z" fill="#E5B88E"/>
<path d="M28.1242 19.5203C27.7969 19.5203 27.4922 19.3133 27.3836 18.9859L26.6023 16.6422C26.4656 16.2328 26.6867 15.7899 27.0961 15.6539C27.5078 15.5172 27.9484 15.7383 28.0844 16.1477L28.8656 18.4914C29.0023 18.9008 28.7812 19.3438 28.3719 19.4797C28.2891 19.5078 28.2062 19.5203 28.1242 19.5203Z" fill="#E5B88E"/>
<path d="M21.875 19.5203C21.7938 19.5203 21.7102 19.507 21.6281 19.4797C21.2195 19.343 20.9977 18.9008 21.1344 18.4914L21.9156 16.1492C22.0524 15.7406 22.4899 15.5172 22.9039 15.6555C23.3125 15.7922 23.5344 16.2344 23.3977 16.6438L22.6164 18.9859C22.507 19.3141 22.2024 19.5203 21.875 19.5203Z" fill="#E5B88E"/>
<path d="M24.9992 20.3016C23.1 20.3016 21.9633 20.0414 21.4227 19.4836C21.1141 19.1656 21.0898 18.8398 21.0945 18.7148C21.1086 18.2836 21.4695 17.9312 21.8992 17.9586C22.2086 17.968 22.4703 18.1562 22.5891 18.4219C22.7484 18.507 23.3352 18.7391 24.9992 18.7391C26.6633 18.7391 27.2508 18.507 27.4102 18.4219C27.5281 18.1562 27.7899 17.968 28.1 17.9586C28.5156 17.9344 28.8922 18.2836 28.9055 18.7148C28.9094 18.8398 28.8852 19.1656 28.5766 19.4836C28.0359 20.0414 26.8992 20.3016 24.9992 20.3016Z" fill="#E5B88E"/>
<path d="M26.5609 24.9875H23.4383C23.0062 24.9875 22.657 24.6383 22.657 24.2062C22.657 23.7742 23.0062 23.425 23.4383 23.425H26.5609C26.993 23.425 27.3422 23.7742 27.3422 24.2062C27.3422 24.6383 26.993 24.9875 26.5609 24.9875Z" fill="#E5B88E"/>
<path d="M30.468 17.1766H29.6867C29.2547 17.1766 28.9055 16.8274 28.9055 16.3953C28.9055 15.9633 29.2547 15.6141 29.6867 15.6141H30.468C30.9 15.6141 31.2492 15.9633 31.2492 16.3953C31.2492 16.8274 30.9 17.1766 30.468 17.1766Z" fill="#E5B88E"/>
<path d="M20.3125 17.1766H19.5312C19.0992 17.1766 18.75 16.8274 18.75 16.3953C18.75 15.9633 19.0992 15.6141 19.5312 15.6141H20.3125C20.7445 15.6141 21.0938 15.9633 21.0938 16.3953C21.0938 16.8274 20.7445 17.1766 20.3125 17.1766Z" fill="#E5B88E"/>
<path d="M22.6578 10.1547C22.4055 10.1547 22.157 10.0328 22.007 9.80703L20.2125 7.11562C19.9727 6.75625 20.0695 6.27187 20.4289 6.03203C20.7883 5.79297 21.2727 5.88984 21.5125 6.24844L23.307 8.93984C23.5469 9.29922 23.45 9.78359 23.0906 10.0234C22.957 10.1117 22.8063 10.1547 22.6578 10.1547Z" fill="#E5B88E"/>
<path d="M27.3422 10.1531C27.1938 10.1531 27.0422 10.1102 26.9094 10.0219C26.55 9.78203 26.4531 9.29687 26.693 8.93828L28.4875 6.24844C28.7266 5.88984 29.2117 5.79297 29.5711 6.03203C29.9305 6.27187 30.0273 6.75703 29.7875 7.11562L27.993 9.80546C27.843 10.0312 27.5945 10.1531 27.3422 10.1531Z" fill="#E5B88E"/>
<path d="M3.90939 38.2766C3.47736 38.2766 3.12814 37.9273 3.12814 37.4953V24.2266C3.12814 23.7945 3.47736 23.4453 3.90939 23.4453C4.34142 23.4453 4.69064 23.7945 4.69064 24.2266V37.4953C4.69064 37.9273 4.34142 38.2766 3.90939 38.2766Z" fill="#E5B88E"/>
<path d="M3.9086 25.0078C3.47657 25.0078 3.12735 24.6586 3.12735 24.2266C3.12735 22.9344 4.17969 21.8828 5.47188 21.8828C5.90391 21.8828 6.25313 22.232 6.25313 22.6641C6.25313 23.0961 5.90391 23.4453 5.47188 23.4453C5.04063 23.4453 4.68985 23.7953 4.68985 24.2266C4.68985 24.6586 4.34063 25.0078 3.9086 25.0078Z" fill="#E5B88E"/>
<path d="M7.03438 41.4016C5.99063 41.4016 5.00938 40.9953 4.27188 40.2586C3.53438 39.5211 3.12735 38.5398 3.12813 37.4953C3.12813 37.0633 3.47813 36.7141 3.90938 36.7141C4.34141 36.7141 4.69063 37.0641 4.69063 37.4953C4.69063 38.1226 4.93438 38.7117 5.37657 39.1531C5.81875 39.5953 6.40703 39.8391 7.03438 39.8391C7.46641 39.8391 7.81563 40.1883 7.81563 40.6203C7.81563 41.0523 7.46641 41.4016 7.03438 41.4016Z" fill="#E5B88E"/>
<path d="M13.2828 38.2766C12.8508 38.2766 12.5016 37.9273 12.5016 37.4953V24.2266C12.5016 23.7945 12.8508 23.4453 13.2828 23.4453C13.7149 23.4453 14.0641 23.7945 14.0641 24.2266V37.4953C14.0641 37.9273 13.7149 38.2766 13.2828 38.2766Z" fill="#E5B88E"/>
<path d="M13.2828 25.0078C12.8508 25.0078 12.5016 24.6586 12.5016 24.2266C12.5016 23.7953 12.1516 23.4453 11.7203 23.4453C11.2883 23.4453 10.9391 23.0961 10.9391 22.6641C10.9391 22.232 11.2883 21.8828 11.7203 21.8828C13.0125 21.8828 14.0641 22.9344 14.0641 24.2266C14.0641 24.6586 13.7148 25.0078 13.2828 25.0078Z" fill="#E5B88E"/>
<path d="M10.157 41.4016C9.725 41.4016 9.37578 41.0523 9.37578 40.6203C9.37578 40.1883 9.725 39.8391 10.157 39.8391C11.4492 39.8391 12.5016 38.7875 12.5016 37.4953C12.5016 37.0633 12.8508 36.7141 13.2828 36.7141C13.7148 36.7141 14.0641 37.0633 14.0641 37.4953C14.0641 39.6492 12.3117 41.4016 10.157 41.4016Z" fill="#E5B88E"/>
<path d="M11.7203 23.4453H5.47188C5.03985 23.4453 4.69063 23.0961 4.69063 22.6641C4.69063 22.232 5.03985 21.8828 5.47188 21.8828H11.7203C12.1523 21.8828 12.5016 22.232 12.5016 22.6641C12.5016 23.0961 12.1523 23.4453 11.7203 23.4453Z" fill="#E5B88E"/>
<path d="M10.9539 33.5921C10.9508 33.5929 10.9445 33.5921 10.9383 33.5921H6.25235C6.04454 33.5921 5.8461 33.5101 5.70001 33.3632C5.55391 33.2164 5.4711 33.0179 5.4711 32.8109L5.47188 25.7875C5.47188 25.3554 5.82188 25.0062 6.25313 25.0062H10.9383C11.3695 25.0062 11.7195 25.3554 11.7195 25.7875L11.7203 32.6547C11.7305 32.7047 11.7359 32.7578 11.7359 32.8109C11.7352 33.2429 11.3859 33.5921 10.9539 33.5921ZM7.0336 32.0297H10.1578L10.157 26.5687H7.03438L7.0336 32.0297Z" fill="#E5B88E"/>
<path d="M11.7203 35.9359C11.393 35.9359 11.0883 35.7289 10.9797 35.4015L10.1985 33.0578C10.0617 32.6484 10.2828 32.2054 10.6922 32.0695C11.1047 31.932 11.5438 32.1539 11.6805 32.5632L12.4617 34.907C12.5985 35.3164 12.3774 35.7593 11.968 35.8953C11.8852 35.9226 11.8016 35.9359 11.7203 35.9359Z" fill="#E5B88E"/>
<path d="M5.47109 35.936C5.38984 35.936 5.30625 35.9227 5.22422 35.8953C4.81563 35.7594 4.59375 35.3172 4.73047 34.907L5.51172 32.5633C5.64844 32.1547 6.08672 31.932 6.5 32.0695C6.90859 32.2055 7.13047 32.6477 6.99375 33.0578L6.2125 35.4016C6.10312 35.7289 5.79844 35.936 5.47109 35.936Z" fill="#E5B88E"/>
<path d="M8.59532 36.7172C6.69454 36.7164 5.5586 36.4563 5.01798 35.8985C4.71016 35.5805 4.68595 35.2555 4.69063 35.1305C4.70391 34.7078 5.05079 34.3735 5.47032 34.3735C5.47891 34.3735 5.48673 34.3735 5.49532 34.3743C5.8047 34.3836 6.06642 34.5719 6.18517 34.8368C6.34454 34.9219 6.93204 35.1539 8.59532 35.1547C10.2594 35.1547 10.8469 34.9227 11.0063 34.8375C11.1242 34.5719 11.386 34.3836 11.6961 34.3743C11.7047 34.3735 11.7125 34.3735 11.7211 34.3735C12.1406 34.3735 12.4875 34.7078 12.5008 35.1305C12.5055 35.2555 12.4813 35.5813 12.1727 35.8993C11.632 36.4571 10.4953 36.7172 8.59532 36.7172Z" fill="#E5B88E"/>
<path d="M10.157 41.4016H7.03438C6.60235 41.4016 6.25313 41.0523 6.25313 40.6203C6.25313 40.1883 6.60235 39.8391 7.03438 39.8391H10.157C10.5891 39.8391 10.9383 40.1883 10.9383 40.6203C10.9383 41.0523 10.5891 41.4016 10.157 41.4016Z" fill="#E5B88E"/>
<path d="M14.0641 33.5922H13.2828C12.8508 33.5922 12.5016 33.243 12.5016 32.811C12.5016 32.3789 12.8508 32.0297 13.2828 32.0297H14.0641C14.4961 32.0297 14.8453 32.3789 14.8453 32.811C14.8453 33.243 14.4961 33.5922 14.0641 33.5922Z" fill="#E5B88E"/>
<path d="M3.9086 33.5922H3.12735C2.69532 33.5922 2.3461 33.243 2.3461 32.811C2.3461 32.3789 2.69532 32.0297 3.12735 32.0297H3.9086C4.34063 32.0297 4.68985 32.3789 4.68985 32.811C4.68985 33.243 4.34063 33.5922 3.9086 33.5922Z" fill="#E5B88E"/>
<path d="M6.25392 26.5688C6.00158 26.5688 5.75314 26.4469 5.60314 26.2211L3.80861 23.5313C3.56876 23.1727 3.66564 22.6875 4.02501 22.4477C4.38283 22.2086 4.86876 22.3047 5.10861 22.6641L6.90314 25.354C7.14298 25.7125 7.04611 26.1977 6.68673 26.4376C6.55392 26.5258 6.40236 26.5688 6.25392 26.5688Z" fill="#E5B88E"/>
<path d="M10.9383 26.5672C10.7898 26.5672 10.6383 26.5243 10.5055 26.436C10.1461 26.1961 10.0492 25.711 10.2891 25.3524L12.0836 22.6641C12.3234 22.3047 12.8094 22.2086 13.1672 22.4477C13.5266 22.6875 13.6234 23.1727 13.3836 23.5313L11.5891 26.2196C11.4383 26.4454 11.1906 26.5672 10.9383 26.5672Z" fill="#E5B88E"/>
<path d="M25 41.4031C24.568 41.4031 24.2188 41.0539 24.2188 40.6218V27.3375C24.2188 26.9054 24.568 26.5562 25 26.5562C25.432 26.5562 25.7812 26.9054 25.7812 27.3375V40.6218C25.7812 41.0539 25.432 41.4031 25 41.4031Z" fill="#E5B88E"/>
<path d="M25 41.4031C24.8 41.4031 24.6 41.3266 24.4477 41.1742C24.1422 40.8688 24.1422 40.375 24.4477 40.0696L26.0102 38.5071C26.3156 38.2016 26.8094 38.2016 27.1148 38.5071C27.4203 38.8125 27.4203 39.3063 27.1148 39.6117L25.5523 41.1742C25.4 41.3266 25.2 41.4031 25 41.4031Z" fill="#E5B88E"/>
<path d="M25 41.4031C24.8 41.4031 24.6 41.3266 24.4477 41.1742L22.8852 39.6117C22.5797 39.3063 22.5797 38.8125 22.8852 38.5071C23.1906 38.2016 23.6844 38.2016 23.9898 38.5071L25.5523 40.0696C25.8578 40.375 25.8578 40.8688 25.5523 41.1742C25.4 41.3266 25.2 41.4031 25 41.4031Z" fill="#E5B88E"/>
</svg>
